<?xml version="1.0" encoding="UTF-8"?>
<svg width="15px" height="13px" viewBox="0 0 15 13" version="1.1" xmlns="http://www.w3.org/2000/svg" xmlns:xlink="http://www.w3.org/1999/xlink">
    <!-- Generator: Sketch 52.3 (67297) - http://www.bohemiancoding.com/sketch -->
    <title>上传照片--图标</title>
    <desc>Created with Sketch.</desc>
    <g id="Page-1" stroke="none" stroke-width="1" fill="none" fill-rule="evenodd">
        <g id="提交清洗记录" transform="translate(-337.000000, -547.000000)" fill="#9B9B9B" fill-rule="nonzero">
            <g id="上传照片--图标" transform="translate(337.000000, 547.000000)">
                <path d="M14.4195098,2.5721967 L14.4177027,2.57400556 C14.0472406,2.19233643 13.5358221,1.98250885 13.0045252,1.993362 L11.2660639,1.993362 L10.8666876,0.94060639 C10.7528383,0.678321916 10.5685108,0.452214611 10.3335836,0.289417351 C10.1004635,0.112149223 9.81855083,0.0108531507 9.52760252,0 L5.53564711,0 C5.24650594,0.00904429221 4.96640042,0.110340365 4.73870174,0.289417351 C4.5019674,0.452214611 4.3176399,0.678321916 4.20198343,0.94060639 L3.76827166,1.993362 L1.99366767,1.993362 C1.46237075,1.98250885 0.950952294,2.19233643 0.580490158,2.57400556 C0.199185228,2.94482154 -0.0104421266,3.45672848 0.000400667609,3.98672401 L0.000400667609,10.9851973 C-0.0104421266,11.5170017 0.199185228,12.0289086 0.580490158,12.3997246 C0.950952294,12.7813938 1.46237075,12.9912213 1.99366767,12.9803682 L13.0063323,12.9803682 C13.5358221,12.9839859 14.0454334,12.7741583 14.4195098,12.3997246 C14.7935862,12.0252909 15.0032136,11.5151928 14.9995993,10.9851973 L14.9995993,3.98672401 C15.0104421,3.45491962 14.8008148,2.94301269 14.4195098,2.5721967 Z M7.5,10.6596028 C5.6802177,10.6596028 4.20379056,9.18357431 4.20379056,7.36205386 C4.20379056,5.54053341 5.67841057,4.06269606 7.49819287,4.06269606 C9.31797516,4.06269606 10.7944023,5.53872455 10.7944023,7.360245 C10.7889809,9.17995659 9.31797516,10.6541762 7.5,10.6596028 Z M7.5,5.1841883 C6.27657139,5.1841883 5.28626285,6.17725158 5.28626285,7.40003989 C5.28626285,8.62463705 6.27837852,9.61589148 7.5,9.61589148 C8.72342861,9.61589148 9.71373715,8.62282819 9.71373715,7.40003989 C9.71915855,6.81035203 9.48784561,6.24417934 9.07039803,5.8281419 C8.65475758,5.4102956 8.08912515,5.17876172 7.5,5.1841883 Z" id="形状"></path>
            </g>
        </g>
    </g>
</svg>