<?xml version="1.0" encoding="UTF-8"?>
<svg width="44px" height="44px" viewBox="0 0 44 44" version="1.1" xmlns="http://www.w3.org/2000/svg" xmlns:xlink="http://www.w3.org/1999/xlink">
    <!-- Generator: Sketch 52.3 (67297) - http://www.bohemiancoding.com/sketch -->
    <title>同期对比</title>
    <desc>Created with Sketch.</desc>
    <defs>
        <linearGradient x1="9.12838133%" y1="50%" x2="89.4545429%" y2="50%" id="linearGradient-1">
            <stop stop-color="#76C2FF" offset="0%"></stop>
            <stop stop-color="#4F99FF" offset="100%"></stop>
        </linearGradient>
        <linearGradient x1="-1.11022302e-14%" y1="50%" x2="100%" y2="50%" id="linearGradient-2">
            <stop stop-color="#56A1FB" offset="0%"></stop>
            <stop stop-color="#2B68F6" offset="100%"></stop>
        </linearGradient>
    </defs>
    <g id="Page-1" stroke="none" stroke-width="1" fill="none" fill-rule="evenodd">
        <g id="首页" transform="translate(-300.000000, -260.000000)">
            <g id="同期对比" transform="translate(300.000000, 260.000000)">
                <circle id="Oval-12-Copy-2" fill="url(#linearGradient-1)" opacity="0.3" cx="22" cy="22" r="22"></circle>
                <rect id="矩形" fill="url(#linearGradient-2)" opacity="0.8" x="12" y="22" width="19" height="6" rx="3"></rect>
                <g id="曲线对比" transform="translate(11.000000, 10.000000)" fill="#000000">
                    <path d="M21.6357094,19.5269864 L2.33527871,19.5269864 L2.33527871,14.6562498 C2.94527282,13.2354281 3.86531712,11.9396715 5.18702844,11.1961712 C8.31334156,9.29323418 9.94441401,14.1865664 12.5270267,14.8662134 C15.5174219,15.6817496 17.6921948,13.5068619 18.6436776,11.0601958 C19.3233246,9.15723013 19.3233246,3.72028368 22.1777732,3.58430834 C23.2652027,3.58430834 23.2652027,1.95317846 22.1777732,2.08912509 C19.0515175,2.36093222 18.3718418,5.48727405 17.8281414,7.93394015 C17.5563343,9.56509873 17.2844123,11.4680357 16.0611223,12.6913544 C14.5659391,14.3224843 12.2552196,13.3710014 11.0318435,12.0117648 C9.26482441,9.70093052 6.41040456,8.20574727 3.69181649,10.3806062 C3.1635052,10.8334363 2.71923104,11.3282992 2.33527871,11.8416808 L2.33527871,1.15831416 C2.33527871,0.520211978 1.81799245,0.00295443017 1.17991897,0.00295443017 C0.541845499,0.00295443017 0.0245305296,0.520240689 0.0245305296,1.15831416 L0.0245305296,20.6823461 C0.0245305296,21.3204483 0.541816788,21.8377059 1.17989026,21.8377059 C1.18841743,21.8377059 1.19685847,21.8372465 1.20535693,21.8370742 C1.21422863,21.8372465 1.22304291,21.8377059 1.23197203,21.8377059 L21.6357094,21.8377059 C22.3025513,21.8377059 22.8431509,21.3204196 22.8431509,20.6823461 C22.8431221,20.0442727 22.3025513,19.5269864 21.6357094,19.5269864 Z" id="路径"></path>
                </g>
            </g>
        </g>
    </g>
</svg>