<?xml version="1.0" encoding="UTF-8"?>
<svg width="44px" height="44px" viewBox="0 0 44 44" version="1.1" xmlns="http://www.w3.org/2000/svg" xmlns:xlink="http://www.w3.org/1999/xlink">
    <!-- Generator: Sketch 52.3 (67297) - http://www.bohemiancoding.com/sketch -->
    <title>趋势分析</title>
    <desc>Created with Sketch.</desc>
    <defs>
        <linearGradient x1="9.12838133%" y1="50%" x2="89.4545429%" y2="50%" id="linearGradient-1">
            <stop stop-color="#76C2FF" offset="0%"></stop>
            <stop stop-color="#4F99FF" offset="100%"></stop>
        </linearGradient>
        <linearGradient x1="-1.11022302e-14%" y1="50%" x2="100%" y2="50%" id="linearGradient-2">
            <stop stop-color="#56A1FB" offset="0%"></stop>
            <stop stop-color="#2B68F6" offset="100%"></stop>
        </linearGradient>
    </defs>
    <g id="Page-1" stroke="none" stroke-width="1" fill="none" fill-rule="evenodd">
        <g id="首页" transform="translate(-211.000000, -260.000000)">
            <g id="趋势分析" transform="translate(211.000000, 260.000000)">
                <circle id="Oval-12-Copy-2" fill="url(#linearGradient-1)" opacity="0.3" cx="22" cy="22" r="22"></circle>
                <rect id="矩形" fill="url(#linearGradient-2)" opacity="0.8" x="12" y="21" width="22" height="6" rx="3"></rect>
                <g id="攻击分析图谱.攻击行为趋势分析" transform="translate(10.000000, 9.000000)" fill="#000000">
                    <polygon id="路径" points="1.89492187 22.0582031 1.89492187 0.008203125 0.019921875 0.008203125 0.019921875 23.9332031 23.9449219 23.9332031 23.9449219 22.0582031"></polygon>
                    <path d="M8.56992187,9.57070313 L2.64492188,3.60820313 L2.64492188,6.27070313 L7.25742187,10.8832031 L8.56992187,9.57070313 Z M11.0824219,19.7332031 L12.3949219,18.4207031 L8.79492187,14.8207031 L11.0074219,12.6082031 L15.0949219,16.6957031 L16.9699219,14.8207031 L21.2449219,19.0957031 L22.5574219,17.7832031 L18.2824219,13.5082031 L22.0699219,9.72070312 L22.0699219,11.5582031 L23.9449219,11.5582031 L23.9449219,6.53320313 L18.9199219,6.53320313 L18.9199219,8.40820312 L20.7574219,8.40820312 L15.0949219,14.0332031 L11.0074219,9.94570313 L2.64492188,18.3082031 L2.64492188,20.9707031 L7.48242188,16.1332031 L11.0824219,19.7332031 Z" id="形状" fill-rule="nonzero"></path>
                </g>
            </g>
        </g>
    </g>
</svg>