<?xml version="1.0" encoding="UTF-8"?>
<svg width="19px" height="19px" viewBox="0 0 19 19" version="1.1" xmlns="http://www.w3.org/2000/svg" xmlns:xlink="http://www.w3.org/1999/xlink">
    <!-- Generator: Sketch 52.3 (67297) - http://www.bohemiancoding.com/sketch -->
    <title>首页图标</title>
    <desc>Created with Sketch.</desc>
    <g id="Page-1" stroke="none" stroke-width="1" fill="none" fill-rule="evenodd">
        <g id="首页" transform="translate(-59.000000, -622.000000)" fill="#5095FB">
            <path d="M69.5755893,622.395129 C68.994674,621.86829 68.1086713,621.86829 67.527756,622.395129 L59.247056,630.256349 C58.9384691,630.53983 58.915929,631.018944 59.1965395,631.330132 C59.4771499,631.641321 59.95613,631.668384 60.2700219,631.390786 L60.4016955,631.265794 L60.4016955,639.470624 C60.4011908,639.876065 60.5619315,640.265073 60.8485032,640.551941 C61.1350749,640.838809 61.5239636,641 61.9294894,641 L66.3754933,641 L66.3754933,636.401417 C66.3751146,636.115846 66.4883482,635.841848 66.6902307,635.639829 C66.8921132,635.437811 67.166068,635.324359 67.4516991,635.324485 L69.5437404,635.324485 C69.8293715,635.324359 70.1033263,635.437811 70.3052088,635.639829 C70.5070913,635.841848 70.6203249,636.115846 70.6199462,636.401417 L70.6199462,641 L75.1714791,641 C75.5770872,641.000126 75.9660982,640.838991 76.2527727,640.552109 C76.5394472,640.265227 76.7002532,639.876147 76.6997483,639.470624 L76.6997483,631.366073 C77.0391525,631.673089 77.520688,631.649801 77.8030494,631.335181 C77.9388563,631.184821 78.009345,630.986674 77.9990036,630.784345 C77.9886621,630.582016 77.898338,630.392085 77.7479081,630.256349 L69.5755893,622.395604 L69.5755893,622.395129 Z" id="首页图标"></path>
        </g>
    </g>
</svg>