<?xml version="1.0" encoding="UTF-8"?>
<svg width="19px" height="19px" viewBox="0 0 19 19" version="1.1" xmlns="http://www.w3.org/2000/svg" xmlns:xlink="http://www.w3.org/1999/xlink">
    <!-- Generator: Sketch 52.3 (67297) - http://www.bohemiancoding.com/sketch -->
    <title>我的--选中状态</title>
    <desc>Created with Sketch.</desc>
    <g id="Page-1" stroke="none" stroke-width="1" fill="none" fill-rule="evenodd">
        <g id="首页" transform="translate(-137.000000, -622.000000)" fill="#5095FB" fill-rule="nonzero">
            <g id="我的--选中状态" transform="translate(137.000000, 622.000000)">
                <path d="M9.5,0.00544412607 C12.3554441,0.00544412607 14.6773639,2.3273639 14.6773639,5.18280802 C14.6773639,8.03825215 12.3554441,10.3601719 9.5,10.3601719 C6.64455587,10.3601719 4.3226361,8.03825215 4.3226361,5.18280802 C4.3226361,2.3273639 6.64455587,0.00544412607 9.5,0.00544412607 Z M13.7573066,10.0525788 C14.5412607,10.2893983 15.243553,10.6024355 15.8587393,10.9889685 C17.2878223,11.8872493 18.9918338,13.6538682 18.9918338,16.9747851 L18.9918338,18.9891117 L0.00816618911,18.9891117 L0.00816618911,16.9747851 C0.00816618911,13.6538682 1.71217765,11.8845272 3.14126074,10.9889685 C3.75644699,10.6024355 4.45873926,10.2893983 5.24269341,10.0525788 C6.38051576,11.0488539 7.8722063,11.6531519 9.5,11.6531519 C11.1277937,11.6531519 12.6194842,11.0488539 13.7573066,10.0525788 Z" id="形状"></path>
            </g>
        </g>
    </g>
</svg>