<?xml version="1.0" encoding="UTF-8"?>
<svg width="54px" height="54px" viewBox="0 0 54 54" version="1.1" xmlns="http://www.w3.org/2000/svg" xmlns:xlink="http://www.w3.org/1999/xlink">
    <!-- Generator: Sketch 52.3 (67297) - http://www.bohemiancoding.com/sketch -->
    <title>地点--选中</title>
    <desc>Created with Sketch.</desc>
    <g id="Page-1" stroke="none" stroke-width="1" fill="none" fill-rule="evenodd">
        <g id="生活饮用水卫生在线监管（测试）" transform="translate(-182.000000, -223.000000)" fill="#3D6EFF">
            <g id="地点--选中" transform="translate(182.000000, 223.000000)">
                <g id="分组-2">
                    <circle id="椭圆形" opacity="0.15" cx="27" cy="27" r="27"></circle>
                    <path d="M29.0943647,39.9397506 C28.9837344,40.0858281 28.8535537,40.2160088 28.7074762,40.3266391 C27.8269347,40.993508 26.5725106,40.8202922 25.9056376,39.9397537 C20.6352125,32.980623 18,27.8816575 18,24.6428571 C18,19.3172542 22.2532949,15 27.5,15 C32.7467051,15 37,19.3172542 37,24.6428571 C37,27.881657 34.3647882,32.9806215 29.0943647,39.9397506 Z M27.5,27 C29.4329966,27 31,25.4329966 31,23.5 C31,21.5670034 29.4329966,20 27.5,20 C25.5670034,20 24,21.5670034 24,23.5 C24,25.4329966 25.5670034,27 27.5,27 Z" id="合并形状"></path>
                </g>
            </g>
        </g>
    </g>
</svg>