<?xml version="1.0" encoding="UTF-8"?>
<svg width="44px" height="44px" viewBox="0 0 44 44" version="1.1" xmlns="http://www.w3.org/2000/svg" xmlns:xlink="http://www.w3.org/1999/xlink">
    <!-- Generator: Sketch 52.3 (67297) - http://www.bohemiancoding.com/sketch -->
    <title>实时监测</title>
    <desc>Created with Sketch.</desc>
    <defs>
        <linearGradient x1="9.12838133%" y1="50%" x2="89.4545429%" y2="50%" id="linearGradient-1">
            <stop stop-color="#76C2FF" offset="0%"></stop>
            <stop stop-color="#4F99FF" offset="100%"></stop>
        </linearGradient>
        <linearGradient x1="-1.11022302e-14%" y1="50%" x2="100%" y2="50%" id="linearGradient-2">
            <stop stop-color="#56A1FB" offset="0%"></stop>
            <stop stop-color="#2B68F6" offset="100%"></stop>
        </linearGradient>
    </defs>
    <g id="Page-1" stroke="none" stroke-width="1" fill="none" fill-rule="evenodd">
        <g id="首页" transform="translate(-33.000000, -261.000000)">
            <g id="实时监测" transform="translate(33.000000, 261.000000)">
                <circle id="Oval-12" fill="url(#linearGradient-1)" opacity="0.3" cx="22" cy="22" r="22"></circle>
                <rect id="矩形" fill="url(#linearGradient-2)" opacity="0.798967634" x="12" y="26" width="22" height="6" rx="3"></rect>
                <g id="监测" transform="translate(9.000000, 12.815642)" fill="#000000" fill-rule="nonzero">
                    <path d="M19.6726257,5.93296089 C19.3506138,5.63533815 18.8491637,5.65189547 18.547486,5.97011173 L14.5162011,10.2455307 L11.3067039,7.48743017 C10.7629347,7.01545657 9.94191259,7.06356236 9.45698324,7.59581006 L5.31340782,12.1086592 C5.17110901,12.2632292 5.09653356,12.4682868 5.10629254,12.6781573 C5.11605151,12.8880277 5.20933437,13.0852799 5.36536313,13.2259777 C5.69130954,13.5204294 6.19357515,13.4975028 6.49134078,13.174581 L10.4597765,8.85167598 L13.6667598,11.6075419 C14.2061181,12.0726626 15.0161311,12.0304257 15.5041899,11.5117318 L19.7100559,7.05055866 C19.8542412,6.89791172 19.9314097,6.69395233 19.9243794,6.48409265 C19.9173491,6.27423297 19.8267037,6.07589534 19.6726257,5.93324022 L19.6726257,5.93296089 Z M1.95949721,16.3365922 C1.9717421,16.3496233 1.98276251,16.3629378 1.99541557,16.3759689 C2.01215027,16.3935327 2.03051761,16.4105299 2.0484768,16.4280936 C2.05215027,16.4309265 2.0562319,16.4337593 2.05949721,16.4365922 C2.03103796,16.4010338 1.99753876,16.3675347 1.95949721,16.3365922 Z M2.36592179,1.94441341 C2.3521791,1.95696571 2.33814401,1.96868119 2.32469372,1.9816519 C2.31124343,1.99462261 2.29223758,2.01428788 2.27615571,2.03102429 L2.26592179,2.04441341 C2.30108367,2.01499025 2.3345259,1.98154801 2.36592179,1.94441341 Z" id="形状"></path>
                    <path d="M24.9081006,2.40418994 C24.5824022,1.02597765 23.3036313,0.051396648 21.9072626,0.0142458101 C21.8907821,0.0142458101 21.8740223,0.012849162 21.8572626,0.012849162 L3.57346369,0.012849162 C3.38882682,0.012849162 3.20167598,0.00530726257 3.01703911,0.0181564246 C2.26424581,0.0709497207 1.57094972,0.359217877 1.01592179,0.873463687 C0.454469274,1.39385475 0.141061453,2.10251397 0.0508379888,2.85195531 C0.0173184358,3.13128492 0.0304469274,3.41675978 0.0304469274,3.6972067 L0.0304469274,15.4446927 C0.0304469274,16.4022346 0.42150838,17.3511173 1.18351955,17.9522346 C1.75977654,18.4055866 2.43435754,18.6656425 3.17374302,18.6717877 L11.6734637,18.6717877 L11.6734637,21.4860335 L8.29162011,21.4860335 C7.83240223,21.4860335 7.37206704,21.4768156 6.91284916,21.4860335 L6.89357542,21.4860335 C6.45335196,21.4860335 6.03156425,21.8731844 6.05195531,22.327933 C6.07234637,22.7826816 6.42178771,23.1695531 6.89357542,23.1695531 L16.7946927,23.1695531 C17.2541899,23.1695531 17.7145251,23.1790503 18.173743,23.1695531 L18.1930168,23.1695531 C18.6332402,23.1695531 19.0550279,22.7824022 19.0346369,22.327933 C19.0142458,21.8734637 18.6648045,21.4860335 18.1930168,21.4860335 L13.3569832,21.4860335 L13.3569832,18.6717877 L21.6631285,18.6717877 C21.7927374,18.6717877 21.9226257,18.6743017 22.0519553,18.6631285 C22.801676,18.5988827 23.4935754,18.3094972 24.0407821,17.7860335 C24.6946927,17.1608939 25,16.2972067 25,15.4058659 L25,3.61396648 C25,3.20502793 25.0036313,2.80865922 24.9081006,2.40418994 Z M22.8681012,2.10158659 C22.8681012,2.10158659 22.8251343,2.06058659 22.7681564,2.00958659 C22.8242002,2.04958659 22.8699693,2.08658659 22.8681012,2.10158659 Z M2.11403073,2.21965296 C2.11403073,2.21965296 2.07503073,2.26259333 2.02703073,2.31951428 C2.06603073,2.26259333 2.10103073,2.21665712 2.11403073,2.21965296 Z M2.23272028,16.6554777 C2.23272028,16.6554777 2.27568719,16.6964777 2.33266505,16.7464777 C2.27662125,16.7064777 2.23085215,16.6694777 2.23272028,16.6554777 Z M22.9882039,16.5370175 C22.9882039,16.5370175 23.0272039,16.4940748 23.0752039,16.4371508 C23.0362039,16.4920775 23.0012039,16.5400135 22.9882039,16.5370175 Z M23.3167598,4.30335196 L23.3167598,14.0857542 C23.3167598,14.5628492 23.3195531,15.0405028 23.3167598,15.5175978 C23.3167598,15.585568 23.3136872,15.6531657 23.3075419,15.7203911 C23.2833639,15.8481676 23.2489896,15.9738022 23.2047486,16.0960894 C23.1584848,16.1927531 23.1055642,16.2860875 23.0463687,16.375419 L23.0276536,16.4055866 C22.9826816,16.4572626 22.9382682,16.5089385 22.8893855,16.5575419 C22.8492578,16.5977595 22.8076073,16.6364284 22.7645251,16.6734637 C22.774581,16.6667598 22.7854749,16.6597765 22.7977654,16.6522346 C22.7829609,16.6614525 22.7698324,16.6717877 22.7544693,16.6821229 C22.7502793,16.6857542 22.7463687,16.6896648 22.7418994,16.6932961 C22.7203693,16.7129391 22.6956114,16.7287199 22.6687151,16.7399441 C22.5904986,16.7901007 22.5093477,16.8355266 22.4256983,16.8759777 C22.3014995,16.9208502 22.1739025,16.9556918 22.0441341,16.9801676 C21.6854749,17.0117318 21.3148045,16.9882682 20.9575419,16.9882682 L7.06703911,16.9882682 C5.77905028,16.9882682 4.49106145,16.9918994 3.20307263,16.9882682 C3.12858473,16.9882682 3.05409683,16.9851024 2.97960894,16.9787709 C2.85200692,16.9546272 2.72655528,16.9202518 2.60446927,16.8759777 C2.50664919,16.8290257 2.41219628,16.7753593 2.32178771,16.7153631 C2.31759777,16.7122905 2.30698324,16.7061453 2.29385475,16.6986034 C2.24134078,16.652514 2.18910615,16.6069832 2.1396648,16.5589385 C2.10044408,16.5195802 2.06270824,16.4787696 2.02653631,16.4365922 L2.04553073,16.4664804 C2.03743017,16.4536313 2.02821229,16.4407821 2.01899441,16.4282123 C2.01424581,16.4223464 2.00893855,16.4167598 2.00418994,16.4108939 C1.98477267,16.3894052 1.96918369,16.3647462 1.95810056,16.3379888 C1.90894995,16.260439 1.8642773,16.1801402 1.82430168,16.097486 C1.77916943,15.9728926 1.74432284,15.8448104 1.72011173,15.7145251 C1.67988827,15.2759777 1.7122905,14.8206704 1.7122905,14.3832402 L1.7122905,4.59944134 C1.7122905,4.12234637 1.70977654,3.64469274 1.7122905,3.16759777 C1.7122905,3.09944134 1.71592179,3.03184358 1.72150838,2.96424581 C1.74565077,2.8363698 1.78002574,2.71063961 1.82430168,2.58826816 C1.87038892,2.49156735 1.92321942,2.39822725 1.98240223,2.30893855 L2.00111732,2.27849162 C2.04608939,2.22653631 2.09078212,2.17513966 2.13938547,2.12653631 C2.17960894,2.08631285 2.22150838,2.04776536 2.26452514,2.01061453 L2.23100559,2.03184358 C2.24581006,2.0226257 2.25893855,2.0122905 2.27430168,2.00167598 L2.28687151,1.99078212 C2.30852372,1.97122685 2.33324957,1.95537211 2.36005587,1.94385475 C2.4383719,1.8937872 2.51961602,1.84845466 2.60335196,1.80810056 C2.72506833,1.76386329 2.85014576,1.72948802 2.9773743,1.70530726 C3.18687151,1.68854749 3.39916201,1.69553073 3.60865922,1.69553073 L19.5187151,1.69553073 C20.2871508,1.69553073 21.0569832,1.70837989 21.825419,1.69553073 L21.8572626,1.69553073 C21.9215084,1.69553073 21.9851955,1.69944134 22.0488827,1.7047486 C22.1770688,1.72898438 22.3030848,1.7635477 22.4256983,1.80810056 C22.5239735,1.8550783 22.618809,1.90893663 22.7094972,1.96927374 C22.7136872,1.97234637 22.7240223,1.97849162 22.7374302,1.98603352 C22.7899441,2.03212291 22.8424581,2.0773743 22.8918994,2.12709497 C22.9310056,2.16648045 22.9684358,2.20726257 23.0036313,2.24916201 L22.9849162,2.21955307 C22.9930168,2.23240223 23.0019553,2.24497207 23.0108939,2.2575419 C23.0159218,2.26340782 23.0212291,2.26899441 23.026257,2.27513966 C23.0458177,2.29646531 23.06134,2.32116837 23.072067,2.34804469 C23.1213677,2.4254089 23.1660455,2.50562369 23.2058659,2.58826816 C23.2509937,2.71295831 23.2858401,2.84113296 23.3100559,2.97150838 C23.349162,3.4103352 23.3167598,3.86620112 23.3167598,4.30335196 Z" id="形状"></path>
                    <path d="M22.6687151,16.7734637 C22.701354,16.7612788 22.7381595,16.7490939 22.7666318,16.7364889 C22.795104,16.7238839 22.8437151,16.7032956 22.8819095,16.6864889 L22.9069095,16.6734637 C22.8232714,16.7029389 22.743624,16.7363768 22.6687151,16.7734637 Z M23.6687151,2.34916201 C23.6485762,2.33616766 23.6298262,2.32289082 23.6082984,2.31017896 C23.5798262,2.29238235 23.5478818,2.27515071 23.5166318,2.25763659 L23.4985762,2.24916201 C23.5473084,2.28462902 23.6042817,2.31811533 23.6687151,2.34916201 Z" id="形状"></path>
                </g>
            </g>
        </g>
    </g>
</svg>